<?xml version="1.0" encoding="UTF-8" standalone="no"?>
<!DOCTYPE svg PUBLIC "-//W3C//DTD SVG 1.1//EN" "http://www.w3.org/Graphics/SVG/1.1/DTD/svg11.dtd">
<!-- Generated by Microsoft Visio, SVG Export Authentication.svg Page-1 -->
<svg xmlns="http://www.w3.org/2000/svg" xmlns:xlink="http://www.w3.org/1999/xlink" xmlns:ev="http://www.w3.org/2001/xml-events"
		xmlns:v="http://schemas.microsoft.com/visio/2003/SVGExtensions/" width="11in" height="8.5in" viewBox="0 0 792 612"
		xml:space="preserve" color-interpolation-filters="sRGB" class="st21">
	<v:documentProperties v:langID="1033" v:viewMarkup="false">
		<v:userDefs>
			<v:ud v:nameU="msvSubprocessMaster" v:prompt="" v:val="VT4(Rectangle)"/>
			<v:ud v:nameU="msvNoAutoConnect" v:val="VT0(1):26"/>
		</v:userDefs>
	</v:documentProperties>

	<style type="text/css">
	<![CDATA[
		.st1 {visibility:visible}
		.st2 {fill:#5b9bd5;fill-opacity:0.22;filter:url(#filter_2);stroke:#5b9bd5;stroke-opacity:0.22}
		.st3 {fill:#5b9bd5;stroke:#c7c8c8;stroke-width:0.25}
		.st4 {stroke:#5b9bd5;stroke-dasharray:7,5;stroke-linecap:round;stroke-linejoin:round;stroke-width:1}
		.st5 {fill:#feffff;font-family:Calibri;font-size:1.00001em;font-weight:bold}
		.st6 {marker-end:url(#mrkr4-106);stroke:#5b9bd5;stroke-linecap:round;stroke-linejoin:round;stroke-width:1}
		.st7 {fill:#5b9bd5;fill-opacity:1;stroke:#5b9bd5;stroke-opacity:1;stroke-width:0.23584905660377}
		.st8 {fill:#ffffff;stroke:none;stroke-linecap:butt;stroke-width:7.2}
		.st9 {fill:#4f87bb;font-family:Calibri;font-size:0.666664em}
		.st10 {font-size:1em}
		.st11 {marker-end:url(#mrkr3-155);stroke:#5b9bd5;stroke-dasharray:7,5;stroke-linecap:round;stroke-linejoin:round;stroke-width:1}
		.st12 {marker-end:url(#mrkr3-194);stroke:#ff0000;stroke-dasharray:7,5;stroke-linecap:round;stroke-linejoin:round;stroke-width:1}
		.st13 {fill:#ff0000;fill-opacity:1;stroke:#ff0000;stroke-opacity:1;stroke-width:0.23584905660377}
		.st14 {fill:#ff0000;font-family:Calibri;font-size:0.666664em}
		.st15 {fill:#5b9bd5;fill-opacity:0.22;filter:url(#filter_2);visibility:hidden}
		.st16 {stroke:#5b9bd5;stroke-opacity:0.22;stroke-width:0.25}
		.st17 {fill:#5b9bd5;visibility:hidden}
		.st18 {stroke:#c7c8c8;stroke-width:0.25}
		.st19 {stroke:#ff0000;stroke-linecap:round;stroke-linejoin:round;stroke-width:1}
		.st20 {fill:#feffff;font-family:Calibri;font-size:0.666664em;font-weight:bold}
		.st21 {fill:none;fill-rule:evenodd;font-size:12px;overflow:visible;stroke-linecap:square;stroke-miterlimit:3}
	]]>
	</style>

	<defs id="Markers">
		<g id="lend4">
			<path d="M 2 1 L 0 0 L 2 -1 L 2 1 " style="stroke:none"/>
		</g>
		<marker id="mrkr4-106" class="st7" v:arrowType="4" v:arrowSize="3" v:setback="8.48" refX="-8.48" orient="auto"
				markerUnits="strokeWidth" overflow="visible">
			<use xlink:href="#lend4" transform="scale(-4.24,-4.24) "/>
		</marker>
		<g id="lend3">
			<path d="M 2 1 L 0 0 L 2 -1 " style="stroke-linecap:round;stroke-linejoin:round;fill:none"/>
		</g>
		<marker id="mrkr3-155" class="st7" v:arrowType="3" v:arrowSize="3" orient="auto" markerUnits="strokeWidth"
				overflow="visible">
			<use xlink:href="#lend3" transform="scale(-4.24,-4.24) "/>
		</marker>
		<marker id="mrkr3-194" class="st13" v:arrowType="3" v:arrowSize="3" orient="auto" markerUnits="strokeWidth"
				overflow="visible">
			<use xlink:href="#lend3" transform="scale(-4.24,-4.24) "/>
		</marker>
	</defs>
	<defs id="Filters">
		<filter id="filter_2">
			<feGaussianBlur stdDeviation="2"/>
		</filter>
	</defs>
	<g v:mID="0" v:index="1" v:groupContext="foregroundPage">
		<v:userDefs>
			<v:ud v:nameU="msvThemeOrder" v:val="VT0(0):26"/>
		</v:userDefs>
		<title>Page-1</title>
		<v:pageProperties v:drawingScale="1" v:pageScale="1" v:drawingUnits="0" v:shadowOffsetX="9" v:shadowOffsetY="-9"/>
		<v:layer v:name="Connector" v:index="0"/>
		<v:layer v:name="Container" v:index="1"/>
		<g id="group1-1" transform="translate(47.25,-509.4)" v:mID="1" v:groupContext="group">
			<v:userDefs>
				<v:ud v:nameU="visVersion" v:prompt="" v:val="VT0(15):26"/>
				<v:ud v:nameU="ShowActor" v:prompt="" v:val="VT0(1):5"/>
				<v:ud v:nameU="ShowDestruction" v:prompt="" v:val="VT0(0):5"/>
			</v:userDefs>
			<title>Actor lifeline</title>
			<desc>user</desc>
			<g id="shape2-2" v:mID="2" v:groupContext="shape">
				<title>Sheet.2</title>
				<g id="shadow2-3" v:groupContext="shadow" v:shadowOffsetX="0.345598" v:shadowOffsetY="-1.97279" v:shadowType="1"
						transform="matrix(1,0,0,1,0.345598,1.97279)" class="st1">
					<rect x="0" y="586.8" width="54" height="25.2" class="st2"/>
				</g>
				<rect x="0" y="586.8" width="54" height="25.2" class="st3"/>
			</g>
			<g id="shape3-7" v:mID="3" v:groupContext="shape" transform="translate(18,-28.8)">
				<title>Sheet.3</title>
				<g id="shadow3-8" v:groupContext="shadow" v:shadowOffsetX="0.345598" v:shadowOffsetY="-1.97279" v:shadowType="1"
						transform="matrix(1,0,0,1,0.345598,1.97279)" class="st1">
					<path d="M3.6 612 L3.6 594 L3.6 601.2 L0 601.2 L0 586.8 L1.8 585 L16.2 585 L18 586.8 L18 601.2 L14.4 601.2 L14.4
								 594 L14.4 612 L9 612 L9 597.6 L9 612 L3.6 612 ZM12.6 579.6 A3.6 3.6 -180 1 0 5.4 579.6 A3.6 3.6
								 -180 1 0 12.6 579.6 Z" class="st2"/>
				</g>
				<path d="M3.6 612 L3.6 594 L3.6 601.2 L0 601.2 L0 586.8 L1.8 585 L16.2 585 L18 586.8 L18 601.2 L14.4 601.2 L14.4
							 594 L14.4 612 L9 612 L9 597.6 L9 612 L3.6 612 ZM12.6 579.6 A3.6 3.6 -180 1 0 5.4 579.6 A3.6 3.6 -180
							 1 0 12.6 579.6 Z" class="st3"/>
			</g>
			<g id="shape4-12" v:mID="4" v:groupContext="shape" transform="translate(18,302.4)">
				<title>Sheet.4</title>
				<g id="shadow4-13" v:groupContext="shadow" v:shadowOffsetX="0.345598" v:shadowOffsetY="-1.97279" v:shadowType="1"
						transform="matrix(1,0,0,1,0.345598,1.97279)" class="st1"/>
			</g>
			<g id="shape5-17" v:mID="5" v:groupContext="shape" transform="translate(639,612) rotate(90)">
				<title>Sheet.5</title>
				<path d="M0 612 L284.4 612" class="st4"/>
			</g>
			<g id="shape1-20" v:mID="1" v:groupContext="groupContent">
				<v:textBlock v:margins="rect(4,4,4,4)"/>
				<v:textRect cx="27" cy="599.4" width="54" height="25.2"/>
				<g id="shadow1-21" v:groupContext="shadow" v:shadowOffsetX="0.345598" v:shadowOffsetY="-1.97279" v:shadowType="1"
						transform="matrix(1,0,0,1,0.345598,1.97279)" class="st1">
					<rect x="0" y="586.8" width="54" height="25.2" class="st2"/>
				</g>
				<rect x="0" y="586.8" width="54" height="25.2" class="st3"/>
				<text x="16.23" y="603" class="st5" v:langID="1033"><v:paragraph v:horizAlign="1"/><v:tabList/>user</text>			</g>
		</g>
		<g id="group6-26" transform="translate(144,-509.4)" v:mID="6" v:groupContext="group">
			<v:userDefs>
				<v:ud v:nameU="visVersion" v:prompt="" v:val="VT0(15):26"/>
				<v:ud v:nameU="ShowActor" v:prompt="" v:val="VT0(0):5"/>
				<v:ud v:nameU="ShowDestruction" v:prompt="" v:val="VT0(0):5"/>
			</v:userDefs>
			<title>Object lifeline</title>
			<desc>app</desc>
			<g id="shape7-27" v:mID="7" v:groupContext="shape">
				<title>Sheet.7</title>
				<g id="shadow7-28" v:groupContext="shadow" v:shadowOffsetX="0.345598" v:shadowOffsetY="-1.97279" v:shadowType="1"
						transform="matrix(1,0,0,1,0.345598,1.97279)" class="st1">
					<rect x="0" y="586.8" width="54" height="25.2" class="st2"/>
				</g>
				<rect x="0" y="586.8" width="54" height="25.2" class="st3"/>
			</g>
			<g id="shape8-32" v:mID="8" v:groupContext="shape" transform="translate(18,-28.8)">
				<title>Sheet.8</title>
				<g id="shadow8-33" v:groupContext="shadow" v:shadowOffsetX="0.345598" v:shadowOffsetY="-1.97279" v:shadowType="1"
						transform="matrix(1,0,0,1,0.345598,1.97279)" class="st1">
					<path d="M9 612 a0 0 0 1 1 0 0 a0 0 0 1 1 0 0 Z" class="st2"/>
				</g>
				<path d="M9 612 a0 0 0 1 1 0 0 a0 0 0 1 1 0 0 Z" class="st3"/>
			</g>
			<g id="shape9-37" v:mID="9" v:groupContext="shape" transform="translate(18,302.4)">
				<title>Sheet.9</title>
				<g id="shadow9-38" v:groupContext="shadow" v:shadowOffsetX="0.345598" v:shadowOffsetY="-1.97279" v:shadowType="1"
						transform="matrix(1,0,0,1,0.345598,1.97279)" class="st1"/>
			</g>
			<g id="shape10-42" v:mID="10" v:groupContext="shape" transform="translate(639,612) rotate(90)">
				<title>Sheet.10</title>
				<path d="M0 612 L284.4 612" class="st4"/>
			</g>
			<g id="shape6-45" v:mID="6" v:groupContext="groupContent">
				<v:textBlock v:margins="rect(4,4,4,4)"/>
				<v:textRect cx="27" cy="599.4" width="54" height="25.2"/>
				<g id="shadow6-46" v:groupContext="shadow" v:shadowOffsetX="0.345598" v:shadowOffsetY="-1.97279" v:shadowType="1"
						transform="matrix(1,0,0,1,0.345598,1.97279)" class="st1">
					<rect x="0" y="586.8" width="54" height="25.2" class="st2"/>
				</g>
				<rect x="0" y="586.8" width="54" height="25.2" class="st3"/>
				<text x="17.6" y="603" class="st5" v:langID="1033"><v:paragraph v:horizAlign="1"/><v:tabList/>app</text>			</g>
		</g>
		<g id="group12-51" transform="translate(225,-509.4)" v:mID="12" v:groupContext="group">
			<v:userDefs>
				<v:ud v:nameU="visVersion" v:prompt="" v:val="VT0(15):26"/>
				<v:ud v:nameU="ShowActor" v:prompt="" v:val="VT0(0):5"/>
				<v:ud v:nameU="ShowDestruction" v:prompt="" v:val="VT0(0):5"/>
			</v:userDefs>
			<title>Object lifeline.12</title>
			<desc>authentication</desc>
			<g id="shape13-52" v:mID="13" v:groupContext="shape" transform="translate(18,0)">
				<title>Sheet.13</title>
				<g id="shadow13-53" v:groupContext="shadow" v:shadowOffsetX="0.345598" v:shadowOffsetY="-1.97279" v:shadowType="1"
						transform="matrix(1,0,0,1,0.345598,1.97279)" class="st1">
					<rect x="0" y="586.8" width="54" height="25.2" class="st2"/>
				</g>
				<rect x="0" y="586.8" width="54" height="25.2" class="st3"/>
			</g>
			<g id="shape14-57" v:mID="14" v:groupContext="shape" transform="translate(36,-28.8)">
				<title>Sheet.14</title>
				<g id="shadow14-58" v:groupContext="shadow" v:shadowOffsetX="0.345598" v:shadowOffsetY="-1.97279" v:shadowType="1"
						transform="matrix(1,0,0,1,0.345598,1.97279)" class="st1">
					<path d="M9 612 a0 0 0 1 1 0 0 a0 0 0 1 1 0 0 Z" class="st2"/>
				</g>
				<path d="M9 612 a0 0 0 1 1 0 0 a0 0 0 1 1 0 0 Z" class="st3"/>
			</g>
			<g id="shape15-62" v:mID="15" v:groupContext="shape" transform="translate(30,302.4)">
				<title>Sheet.15</title>
				<g id="shadow15-63" v:groupContext="shadow" v:shadowOffsetX="0.345598" v:shadowOffsetY="-1.97279" v:shadowType="1"
						transform="matrix(1,0,0,1,0.345598,1.97279)" class="st1"/>
			</g>
			<g id="shape16-67" v:mID="16" v:groupContext="shape" transform="translate(657,612) rotate(90)">
				<title>Sheet.16</title>
				<path d="M0 612 L284.4 612" class="st4"/>
			</g>
			<g id="shape12-70" v:mID="12" v:groupContext="groupContent">
				<v:textBlock v:margins="rect(4,4,4,4)"/>
				<v:textRect cx="45" cy="599.4" width="90" height="25.2"/>
				<g id="shadow12-71" v:groupContext="shadow" v:shadowOffsetX="0.345598" v:shadowOffsetY="-1.97279" v:shadowType="1"
						transform="matrix(1,0,0,1,0.345598,1.97279)" class="st1">
					<rect x="0" y="586.8" width="90" height="25.2" class="st2"/>
				</g>
				<rect x="0" y="586.8" width="90" height="25.2" class="st3"/>
				<text x="8.25" y="603" class="st5" v:langID="1033"><v:paragraph v:horizAlign="1"/><v:tabList/>authentication</text>			</g>
		</g>
		<g id="group18-76" transform="translate(342,-509.4)" v:mID="18" v:groupContext="group">
			<v:userDefs>
				<v:ud v:nameU="visVersion" v:prompt="" v:val="VT0(15):26"/>
				<v:ud v:nameU="ShowActor" v:prompt="" v:val="VT0(0):5"/>
				<v:ud v:nameU="ShowDestruction" v:prompt="" v:val="VT0(0):5"/>
			</v:userDefs>
			<title>Object lifeline.18</title>
			<desc>User Service</desc>
			<g id="shape19-77" v:mID="19" v:groupContext="shape" transform="translate(18,0)">
				<title>Sheet.19</title>
				<g id="shadow19-78" v:groupContext="shadow" v:shadowOffsetX="0.345598" v:shadowOffsetY="-1.97279" v:shadowType="1"
						transform="matrix(1,0,0,1,0.345598,1.97279)" class="st1">
					<rect x="0" y="586.8" width="54" height="25.2" class="st2"/>
				</g>
				<rect x="0" y="586.8" width="54" height="25.2" class="st3"/>
			</g>
			<g id="shape20-82" v:mID="20" v:groupContext="shape" transform="translate(36,-28.8)">
				<title>Sheet.20</title>
				<g id="shadow20-83" v:groupContext="shadow" v:shadowOffsetX="0.345598" v:shadowOffsetY="-1.97279" v:shadowType="1"
						transform="matrix(1,0,0,1,0.345598,1.97279)" class="st1">
					<path d="M9 612 a0 0 0 1 1 0 0 a0 0 0 1 1 0 0 Z" class="st2"/>
				</g>
				<path d="M9 612 a0 0 0 1 1 0 0 a0 0 0 1 1 0 0 Z" class="st3"/>
			</g>
			<g id="shape21-87" v:mID="21" v:groupContext="shape" transform="translate(30,302.4)">
				<title>Sheet.21</title>
				<g id="shadow21-88" v:groupContext="shadow" v:shadowOffsetX="0.345598" v:shadowOffsetY="-1.97279" v:shadowType="1"
						transform="matrix(1,0,0,1,0.345598,1.97279)" class="st1"/>
			</g>
			<g id="shape22-92" v:mID="22" v:groupContext="shape" transform="translate(657,612) rotate(90)">
				<title>Sheet.22</title>
				<path d="M0 612 L284.4 612" class="st4"/>
			</g>
			<g id="shape18-95" v:mID="18" v:groupContext="groupContent">
				<v:textBlock v:margins="rect(4,4,4,4)"/>
				<v:textRect cx="45" cy="599.4" width="90" height="25.2"/>
				<g id="shadow18-96" v:groupContext="shadow" v:shadowOffsetX="0.345598" v:shadowOffsetY="-1.97279" v:shadowType="1"
						transform="matrix(1,0,0,1,0.345598,1.97279)" class="st1">
					<rect x="0" y="586.8" width="90" height="25.2" class="st2"/>
				</g>
				<rect x="0" y="586.8" width="90" height="25.2" class="st3"/>
				<text x="14.35" y="603" class="st5" v:langID="1033"><v:paragraph v:horizAlign="1"/><v:tabList/>User Service</text>			</g>
		</g>
		<g id="shape33-101" v:mID="33" v:groupContext="shape" v:layerMember="0" transform="translate(74.25,-482.4)">
			<title>Message</title>
			<desc>Login</desc>
			<v:userDefs>
				<v:ud v:nameU="IsReturn" v:prompt="" v:val="VT0(0):5"/>
				<v:ud v:nameU="IsAsync" v:prompt="" v:val="VT0(0):26"/>
				<v:ud v:nameU="IsSelfMessage" v:prompt="" v:val="VT0(0):5"/>
				<v:ud v:nameU="visVersion" v:prompt="" v:val="VT0(15):26"/>
			</v:userDefs>
			<v:textBlock v:margins="rect(4,4,4,4)"/>
			<v:textRect cx="48.375" cy="603" width="40" height="17.6036"/>
			<path d="M0 603 L88.27 603" class="st6"/>
			<rect v:rectContext="textBkgnd" x="39.6819" y="598.2" width="17.3864" height="9.59985" class="st8"/>
			<text x="39.68" y="605.4" class="st9" v:langID="1033"><v:paragraph v:horizAlign="1"/><v:tabList/>Login</text>		</g>
		<g id="shape34-109" v:mID="34" v:groupContext="shape" v:layerMember="0" transform="translate(171,-474.75)">
			<title>Message.34</title>
			<desc>pass on the credentials</desc>
			<v:userDefs>
				<v:ud v:nameU="IsReturn" v:prompt="" v:val="VT0(0):5"/>
				<v:ud v:nameU="IsAsync" v:prompt="" v:val="VT0(0):26"/>
				<v:ud v:nameU="IsSelfMessage" v:prompt="" v:val="VT0(0):5"/>
				<v:ud v:nameU="visVersion" v:prompt="" v:val="VT0(15):26"/>
			</v:userDefs>
			<v:textBlock v:margins="rect(4,4,4,4)"/>
			<v:textRect cx="49.5" cy="603" width="48.82" height="27.2035"/>
			<path d="M0 603 L90.52 603" class="st6"/>
			<rect v:rectContext="textBkgnd" x="30.9025" y="593.4" width="37.195" height="19.1997" class="st8"/>
			<text x="30.9" y="600.6" class="st9" v:langID="1033"><v:paragraph v:horizAlign="1"/><v:tabList/>pass on the <v:newlineChar/><tspan
						x="31.57" dy="1.2em" class="st10">credentials</tspan></text>		</g>
		<g id="shape35-117" v:mID="35" v:groupContext="shape" v:layerMember="0" transform="translate(270,-437.4)">
			<title>Message.35</title>
			<desc>validate credentials</desc>
			<v:userDefs>
				<v:ud v:nameU="IsReturn" v:prompt="" v:val="VT0(0):5"/>
				<v:ud v:nameU="IsAsync" v:prompt="" v:val="VT0(0):26"/>
				<v:ud v:nameU="IsSelfMessage" v:prompt="" v:val="VT0(0):5"/>
				<v:ud v:nameU="visVersion" v:prompt="" v:val="VT0(15):26"/>
			</v:userDefs>
			<v:textBlock v:margins="rect(4,4,4,4)"/>
			<v:textRect cx="58.5" cy="603" width="45.67" height="27.2035"/>
			<path d="M0 603 L108.52 603" class="st6"/>
			<rect v:rectContext="textBkgnd" x="40.5747" y="593.4" width="35.8509" height="19.1997" class="st8"/>
			<text x="45.59" y="600.6" class="st9" v:langID="1033"><v:paragraph v:horizAlign="1"/><v:tabList/>validate<v:newlineChar/><tspan
						x="40.57" dy="1.2em" class="st10">credentials</tspan></text>		</g>
		<g id="group36-125" transform="translate(459,-509.4)" v:mID="36" v:groupContext="group">
			<v:userDefs>
				<v:ud v:nameU="visVersion" v:prompt="" v:val="VT0(15):26"/>
				<v:ud v:nameU="ShowActor" v:prompt="" v:val="VT0(0):5"/>
				<v:ud v:nameU="ShowDestruction" v:prompt="" v:val="VT0(0):5"/>
			</v:userDefs>
			<title>Object lifeline.36</title>
			<desc>JWT service</desc>
			<g id="shape37-126" v:mID="37" v:groupContext="shape" transform="translate(18,0)">
				<title>Sheet.37</title>
				<g id="shadow37-127" v:groupContext="shadow" v:shadowOffsetX="0.345598" v:shadowOffsetY="-1.97279" v:shadowType="1"
						transform="matrix(1,0,0,1,0.345598,1.97279)" class="st1">
					<rect x="0" y="586.8" width="54" height="25.2" class="st2"/>
				</g>
				<rect x="0" y="586.8" width="54" height="25.2" class="st3"/>
			</g>
			<g id="shape38-131" v:mID="38" v:groupContext="shape" transform="translate(36,-28.8)">
				<title>Sheet.38</title>
				<g id="shadow38-132" v:groupContext="shadow" v:shadowOffsetX="0.345598" v:shadowOffsetY="-1.97279" v:shadowType="1"
						transform="matrix(1,0,0,1,0.345598,1.97279)" class="st1">
					<path d="M9 612 a0 0 0 1 1 0 0 a0 0 0 1 1 0 0 Z" class="st2"/>
				</g>
				<path d="M9 612 a0 0 0 1 1 0 0 a0 0 0 1 1 0 0 Z" class="st3"/>
			</g>
			<g id="shape39-136" v:mID="39" v:groupContext="shape" transform="translate(30,302.4)">
				<title>Sheet.39</title>
				<g id="shadow39-137" v:groupContext="shadow" v:shadowOffsetX="0.345598" v:shadowOffsetY="-1.97279" v:shadowType="1"
						transform="matrix(1,0,0,1,0.345598,1.97279)" class="st1"/>
			</g>
			<g id="shape40-141" v:mID="40" v:groupContext="shape" transform="translate(657,612) rotate(90)">
				<title>Sheet.40</title>
				<path d="M0 612 L284.4 612" class="st4"/>
			</g>
			<g id="shape36-144" v:mID="36" v:groupContext="groupContent">
				<v:textBlock v:margins="rect(4,4,4,4)"/>
				<v:textRect cx="45" cy="599.4" width="90" height="25.2"/>
				<g id="shadow36-145" v:groupContext="shadow" v:shadowOffsetX="0.345598" v:shadowOffsetY="-1.97279" v:shadowType="1"
						transform="matrix(1,0,0,1,0.345598,1.97279)" class="st1">
					<rect x="0" y="586.8" width="90" height="25.2" class="st2"/>
				</g>
				<rect x="0" y="586.8" width="90" height="25.2" class="st3"/>
				<text x="15.86" y="603" class="st5" v:langID="1033"><v:paragraph v:horizAlign="1"/><v:tabList/>JWT service</text>			</g>
		</g>
		<g id="shape41-150" v:mID="41" v:groupContext="shape" v:layerMember="0" transform="translate(387,-419.4)">
			<title>Message.41</title>
			<desc>return user details (on success)</desc>
			<v:userDefs>
				<v:ud v:nameU="IsReturn" v:prompt="" v:val="VT0(0):5"/>
				<v:ud v:nameU="IsAsync" v:prompt="" v:val="VT0(0):26"/>
				<v:ud v:nameU="IsSelfMessage" v:prompt="" v:val="VT0(0):5"/>
				<v:ud v:nameU="visVersion" v:prompt="" v:val="VT0(15):26"/>
				<v:ud v:nameU="IsReturn" v:prompt="" v:val="VT0(1):5"/>
				<v:ud v:nameU="IsAsync" v:prompt="" v:val="VT0(0):5"/>
			</v:userDefs>
			<v:textBlock v:margins="rect(4,4,4,4)"/>
			<v:textRect cx="-58.5" cy="603" width="69.68" height="27.2035"/>
			<path d="M0 603 L-117 603" class="st11"/>
			<rect v:rectContext="textBkgnd" x="-88.4293" y="593.4" width="59.8587" height="19.1997" class="st8"/>
			<text x="-88.43" y="600.6" class="st9" v:langID="1033"><v:paragraph v:horizAlign="1"/><v:tabList/>return user details<v:newlineChar/><tspan
						x="-78.21" dy="1.2em" class="st10">(</tspan>on success)</text>		</g>
		<g id="shape42-159" v:mID="42" v:groupContext="shape" v:layerMember="0" transform="translate(270,-401.4)">
			<title>Message.42</title>
			<desc>create JWT</desc>
			<v:userDefs>
				<v:ud v:nameU="IsReturn" v:prompt="" v:val="VT0(0):5"/>
				<v:ud v:nameU="IsAsync" v:prompt="" v:val="VT0(0):26"/>
				<v:ud v:nameU="IsSelfMessage" v:prompt="" v:val="VT0(0):5"/>
				<v:ud v:nameU="visVersion" v:prompt="" v:val="VT0(15):26"/>
			</v:userDefs>
			<v:textBlock v:margins="rect(4,4,4,4)"/>
			<v:textRect cx="117" cy="603" width="45.84" height="17.6036"/>
			<path d="M0 603 L225.52 603" class="st6"/>
			<rect v:rectContext="textBkgnd" x="98.9905" y="598.2" width="36.0192" height="9.59985" class="st8"/>
			<text x="98.99" y="605.4" class="st9" v:langID="1033"><v:paragraph v:horizAlign="1"/><v:tabList/>create JWT</text>		</g>
		<g id="shape43-166" v:mID="43" v:groupContext="shape" v:layerMember="0" transform="translate(504,-383.4)">
			<title>Message.43</title>
			<desc>return JWT</desc>
			<v:userDefs>
				<v:ud v:nameU="IsReturn" v:prompt="" v:val="VT0(0):5"/>
				<v:ud v:nameU="IsAsync" v:prompt="" v:val="VT0(0):26"/>
				<v:ud v:nameU="IsSelfMessage" v:prompt="" v:val="VT0(0):5"/>
				<v:ud v:nameU="visVersion" v:prompt="" v:val="VT0(15):26"/>
				<v:ud v:nameU="IsReturn" v:prompt="" v:val="VT0(1):5"/>
				<v:ud v:nameU="IsAsync" v:prompt="" v:val="VT0(0):5"/>
			</v:userDefs>
			<v:textBlock v:margins="rect(4,4,4,4)"/>
			<v:textRect cx="-117" cy="603" width="45.84" height="17.6036"/>
			<path d="M0 603 L-234 603" class="st11"/>
			<rect v:rectContext="textBkgnd" x="-135.01" y="598.2" width="36.0195" height="9.59985" class="st8"/>
			<text x="-135.01" y="605.4" class="st9" v:langID="1033"><v:paragraph v:horizAlign="1"/><v:tabList/>return JWT</text>		</g>
		<g id="shape44-173" v:mID="44" v:groupContext="shape" v:layerMember="0" transform="translate(270,-342)">
			<title>Message.44</title>
			<desc>return JWT</desc>
			<v:userDefs>
				<v:ud v:nameU="IsReturn" v:prompt="" v:val="VT0(0):5"/>
				<v:ud v:nameU="IsAsync" v:prompt="" v:val="VT0(0):26"/>
				<v:ud v:nameU="IsSelfMessage" v:prompt="" v:val="VT0(0):5"/>
				<v:ud v:nameU="visVersion" v:prompt="" v:val="VT0(15):26"/>
				<v:ud v:nameU="IsReturn" v:prompt="" v:val="VT0(1):5"/>
				<v:ud v:nameU="IsAsync" v:prompt="" v:val="VT0(0):5"/>
			</v:userDefs>
			<v:textBlock v:margins="rect(4,4,4,4)"/>
			<v:textRect cx="-49.5" cy="603" width="45.84" height="17.6036"/>
			<path d="M0 603 L-99 603" class="st11"/>
			<rect v:rectContext="textBkgnd" x="-67.5096" y="598.2" width="36.0195" height="9.59985" class="st8"/>
			<text x="-67.51" y="605.4" class="st9" v:langID="1033"><v:paragraph v:horizAlign="1"/><v:tabList/>return JWT</text>		</g>
		<g id="shape45-180" v:mID="45" v:groupContext="shape" v:layerMember="0" transform="translate(171,-329.4)">
			<title>Message.45</title>
			<desc>send resp header that contains JWT</desc>
			<v:userDefs>
				<v:ud v:nameU="IsReturn" v:prompt="" v:val="VT0(0):5"/>
				<v:ud v:nameU="IsAsync" v:prompt="" v:val="VT0(0):26"/>
				<v:ud v:nameU="IsSelfMessage" v:prompt="" v:val="VT0(0):5"/>
				<v:ud v:nameU="visVersion" v:prompt="" v:val="VT0(15):26"/>
				<v:ud v:nameU="IsReturn" v:prompt="" v:val="VT0(1):5"/>
				<v:ud v:nameU="IsAsync" v:prompt="" v:val="VT0(0):5"/>
			</v:userDefs>
			<v:textBlock v:margins="rect(4,4,4,4)"/>
			<v:textRect cx="-48.375" cy="603" width="67.88" height="36.8035"/>
			<path d="M0 603 L-96.75 603" class="st11"/>
			<rect v:rectContext="textBkgnd" x="-77.4059" y="588.6" width="58.0619" height="28.7996" class="st8"/>
			<text x="-64.09" y="595.8" class="st9" v:langID="1033"><v:paragraph v:horizAlign="1"/><v:tabList/>send resp <v:newlineChar/><tspan
						x="-59.87" dy="1.2em" class="st10">header<v:newlineChar/></tspan><tspan x="-77.41" dy="1.2em" class="st10">that contains JWT</tspan></text>		</g>
		<g id="shape46-189" v:mID="46" v:groupContext="shape" v:layerMember="0" transform="translate(387,-311.4)">
			<title>Message.46</title>
			<desc>Exception</desc>
			<v:userDefs>
				<v:ud v:nameU="IsReturn" v:prompt="" v:val="VT0(0):5"/>
				<v:ud v:nameU="IsAsync" v:prompt="" v:val="VT0(0):26"/>
				<v:ud v:nameU="IsSelfMessage" v:prompt="" v:val="VT0(0):5"/>
				<v:ud v:nameU="visVersion" v:prompt="" v:val="VT0(15):26"/>
				<v:ud v:nameU="IsReturn" v:prompt="" v:val="VT0(1):5"/>
				<v:ud v:nameU="IsAsync" v:prompt="" v:val="VT0(0):5"/>
			</v:userDefs>
			<v:textBlock v:margins="rect(4,4,4,4)"/>
			<v:textRect cx="-58.5" cy="603" width="41.69" height="17.6036"/>
			<path d="M0 603 L-117 603" class="st12"/>
			<rect v:rectContext="textBkgnd" x="-74.4371" y="598.2" width="31.8744" height="9.59985" class="st8"/>
			<text x="-74.44" y="605.4" class="st14" v:langID="1033"><v:paragraph v:horizAlign="1"/><v:tabList/>Exception</text>		</g>
		<g id="group70-197" transform="translate(243,-261)" v:mID="70" v:groupContext="group">
			<v:userDefs>
				<v:ud v:nameU="Row_1" v:val="VT0(0):26"/>
				<v:ud v:nameU="MoveText" v:val="VT0(0):26"/>
				<v:ud v:nameU="Row_3" v:val="VT0(0):26"/>
				<v:ud v:nameU="Row_4" v:val="VT0(0):26"/>
				<v:ud v:nameU="Row_5" v:val="VT0(0):26"/>
				<v:ud v:nameU="Row_6" v:val="VT0(0):26"/>
				<v:ud v:nameU="Row_7" v:val="VT0(0):26"/>
				<v:ud v:nameU="Row_8" v:val="VT0(0):26"/>
				<v:ud v:nameU="Row_9" v:val="VT0(0):26"/>
				<v:ud v:nameU="Row_10" v:val="VT0(0):26"/>
			</v:userDefs>
			<title>Diagram, Frame</title>
			<g id="shape71-198" v:mID="71" v:groupContext="shape">
				<title>Sheet.71</title>
				<v:userDefs>
					<v:ud v:nameU="HideText"/>
					<v:ud v:nameU="MoveText" v:val="VT0(0):26"/>
				</v:userDefs>
				<g id="shadow71-199" v:groupContext="shadow" v:shadowOffsetX="0.345598" v:shadowOffsetY="-1.97279" v:shadowType="1"
						transform="matrix(1,0,0,1,0.345598,1.97279)" class="st1">
					<rect x="0" y="405" width="315" height="207" class="st15"/>
					<rect x="0" y="405" width="315" height="207" class="st16"/>
				</g>
				<rect x="0" y="405" width="315" height="207" class="st17"/>
				<rect x="0" y="405" width="315" height="207" class="st18"/>
			</g>
			<g id="shape72-205" v:mID="72" v:groupContext="shape">
				<title>Sheet.72</title>
				<desc>[guard]</desc>
				<v:userDefs>
					<v:ud v:nameU="HideText" v:val="VT0(0):26"/>
					<v:ud v:nameU="MoveText" v:val="VT0(0):26"/>
					<v:ud v:nameU="HideLine" v:val="VT0(0):26"/>
				</v:userDefs>
				<v:textBlock v:margins="rect(4,4,4,4)"/>
				<v:textRect cx="53.76" cy="621" width="33.52" height="17.6036"/>
			</g>
			<g id="shape73-207" v:mID="73" v:groupContext="shape" transform="translate(0,-72)">
				<title>Sheet.73</title>
				<desc>EXCEPTION</desc>
				<v:userDefs>
					<v:ud v:nameU="HideText" v:val="VT0(0):26"/>
					<v:ud v:nameU="MoveText" v:val="VT0(0):26"/>
					<v:ud v:nameU="HideLine" v:val="VT0(0):26"/>
				</v:userDefs>
				<v:textBlock v:margins="rect(4,4,4,4)"/>
				<v:textRect cx="144" cy="612" width="46.56" height="17.6036"/>
				<path d="M0 612 L315 612" class="st19"/>
				<rect v:rectContext="textBkgnd" x="125.631" y="607.2" width="36.7383" height="9.59985" class="st8"/>
				<text x="125.63" y="614.4" class="st14" v:langID="1033"><v:paragraph v:horizAlign="1"/><v:tabList/>EXCEPTION</text>			</g>
			<g id="shape74-212" v:mID="74" v:groupContext="shape">
				<title>Sheet.74</title>
				<desc>[guard]</desc>
				<v:userDefs>
					<v:ud v:nameU="HideText" v:val="VT0(0):26"/>
					<v:ud v:nameU="MoveText" v:val="VT0(0):26"/>
					<v:ud v:nameU="HideLine" v:val="VT0(0):26"/>
				</v:userDefs>
				<v:textBlock v:margins="rect(4,4,4,4)"/>
				<v:textRect cx="157.5" cy="621" width="33.52" height="17.6036"/>
			</g>
			<g id="shape75-214" v:mID="75" v:groupContext="shape">
				<title>Sheet.75</title>
				<desc>[guard]</desc>
				<v:userDefs>
					<v:ud v:nameU="HideText" v:val="VT0(0):26"/>
					<v:ud v:nameU="MoveText" v:val="VT0(0):26"/>
					<v:ud v:nameU="HideLine" v:val="VT0(0):26"/>
				</v:userDefs>
				<v:textBlock v:margins="rect(4,4,4,4)"/>
				<v:textRect cx="157.5" cy="621" width="33.52" height="17.6036"/>
			</g>
			<g id="shape76-216" v:mID="76" v:groupContext="shape">
				<title>Sheet.76</title>
				<desc>[guard]</desc>
				<v:userDefs>
					<v:ud v:nameU="HideText" v:val="VT0(0):26"/>
					<v:ud v:nameU="MoveText" v:val="VT0(0):26"/>
					<v:ud v:nameU="HideLine" v:val="VT0(0):26"/>
				</v:userDefs>
				<v:textBlock v:margins="rect(4,4,4,4)"/>
				<v:textRect cx="157.5" cy="621" width="33.52" height="17.6036"/>
			</g>
			<g id="shape77-218" v:mID="77" v:groupContext="shape">
				<title>Sheet.77</title>
				<desc>[guard]</desc>
				<v:userDefs>
					<v:ud v:nameU="HideText" v:val="VT0(0):26"/>
					<v:ud v:nameU="MoveText" v:val="VT0(0):26"/>
					<v:ud v:nameU="HideLine" v:val="VT0(0):26"/>
				</v:userDefs>
				<v:textBlock v:margins="rect(4,4,4,4)"/>
				<v:textRect cx="157.5" cy="621" width="33.52" height="17.6036"/>
			</g>
			<g id="shape78-220" v:mID="78" v:groupContext="shape">
				<title>Sheet.78</title>
				<desc>[guard]</desc>
				<v:userDefs>
					<v:ud v:nameU="HideText" v:val="VT0(0):26"/>
					<v:ud v:nameU="MoveText" v:val="VT0(0):26"/>
					<v:ud v:nameU="HideLine" v:val="VT0(0):26"/>
				</v:userDefs>
				<v:textBlock v:margins="rect(4,4,4,4)"/>
				<v:textRect cx="157.5" cy="621" width="33.52" height="17.6036"/>
			</g>
			<g id="shape79-222" v:mID="79" v:groupContext="shape">
				<title>Sheet.79</title>
				<desc>[guard]</desc>
				<v:userDefs>
					<v:ud v:nameU="HideText" v:val="VT0(0):26"/>
					<v:ud v:nameU="MoveText" v:val="VT0(0):26"/>
					<v:ud v:nameU="HideLine" v:val="VT0(0):26"/>
				</v:userDefs>
				<v:textBlock v:margins="rect(4,4,4,4)"/>
				<v:textRect cx="157.5" cy="621" width="33.52" height="17.6036"/>
			</g>
			<g id="shape80-224" v:mID="80" v:groupContext="shape" transform="translate(0,-189)">
				<title>Sheet.80</title>
				<desc>HAPPY</desc>
				<v:userDefs>
					<v:ud v:nameU="Row_1" v:val="VT0(0):26"/>
					<v:ud v:nameU="Row_2" v:val="VT0(0):26"/>
				</v:userDefs>
				<v:textBlock v:margins="rect(4,4,4,4)"/>
				<v:textRect cx="28.61" cy="603" width="32.38" height="18"/>
				<g id="shadow80-225" v:groupContext="shadow" v:shadowOffsetX="0.345598" v:shadowOffsetY="-1.97279" v:shadowType="1"
						transform="matrix(1,0,0,1,0.345598,1.97279)" class="st1">
					<path d="M0 612 L48.22 612 L57.22 603 L57.22 594 L0 594 L0 612 Z" class="st2"/>
				</g>
				<path d="M0 612 L48.22 612 L57.22 603 L57.22 594 L0 594 L0 612 Z" class="st3"/>
				<text x="17.33" y="605.4" class="st20" v:langID="1033"><v:paragraph v:horizAlign="1"/><v:tabList/>HAPPY</text>			</g>
		</g>
		<g id="shape81-230" v:mID="81" v:groupContext="shape" v:layerMember="0" transform="translate(270,-293.4)">
			<title>Message.81</title>
			<desc>Exception</desc>
			<v:userDefs>
				<v:ud v:nameU="IsReturn" v:prompt="" v:val="VT0(0):5"/>
				<v:ud v:nameU="IsAsync" v:prompt="" v:val="VT0(0):26"/>
				<v:ud v:nameU="IsSelfMessage" v:prompt="" v:val="VT0(0):5"/>
				<v:ud v:nameU="visVersion" v:prompt="" v:val="VT0(15):26"/>
				<v:ud v:nameU="IsReturn" v:prompt="" v:val="VT0(1):5"/>
				<v:ud v:nameU="IsAsync" v:prompt="" v:val="VT0(0):5"/>
			</v:userDefs>
			<v:textBlock v:margins="rect(4,4,4,4)"/>
			<v:textRect cx="-49.5" cy="603" width="41.69" height="17.6036"/>
			<path d="M0 603 L-99 603" class="st12"/>
			<rect v:rectContext="textBkgnd" x="-65.4371" y="598.2" width="31.8744" height="9.59985" class="st8"/>
			<text x="-65.44" y="605.4" class="st14" v:langID="1033"><v:paragraph v:horizAlign="1"/><v:tabList/>Exception</text>		</g>
		<g id="shape82-237" v:mID="82" v:groupContext="shape" v:layerMember="0" transform="translate(171,-275.4)">
			<title>Message.82</title>
			<desc>401</desc>
			<v:userDefs>
				<v:ud v:nameU="IsReturn" v:prompt="" v:val="VT0(0):5"/>
				<v:ud v:nameU="IsAsync" v:prompt="" v:val="VT0(0):26"/>
				<v:ud v:nameU="IsSelfMessage" v:prompt="" v:val="VT0(0):5"/>
				<v:ud v:nameU="visVersion" v:prompt="" v:val="VT0(15):26"/>
				<v:ud v:nameU="IsReturn" v:prompt="" v:val="VT0(1):5"/>
				<v:ud v:nameU="IsAsync" v:prompt="" v:val="VT0(0):5"/>
			</v:userDefs>
			<v:textBlock v:margins="rect(4,4,4,4)"/>
			<v:textRect cx="-48.375" cy="603" width="40" height="17.6036"/>
			<path d="M0 603 L-96.75 603" class="st12"/>
			<rect v:rectContext="textBkgnd" x="-54.4572" y="598.2" width="12.1643" height="9.59985" class="st8"/>
			<text x="-54.46" y="605.4" class="st14" v:langID="1033"><v:paragraph v:horizAlign="1"/><v:tabList/>401</text>		</g>
		<g id="group83-244" transform="translate(576,-509.4)" v:mID="83" v:groupContext="group">
			<v:userDefs>
				<v:ud v:nameU="visVersion" v:prompt="" v:val="VT0(15):26"/>
				<v:ud v:nameU="ShowActor" v:prompt="" v:val="VT0(0):5"/>
				<v:ud v:nameU="ShowDestruction" v:prompt="" v:val="VT0(0):5"/>
			</v:userDefs>
			<title>Object lifeline.83</title>
			<desc>Token Service</desc>
			<g id="shape84-245" v:mID="84" v:groupContext="shape" transform="translate(18,0)">
				<title>Sheet.84</title>
				<g id="shadow84-246" v:groupContext="shadow" v:shadowOffsetX="0.345598" v:shadowOffsetY="-1.97279" v:shadowType="1"
						transform="matrix(1,0,0,1,0.345598,1.97279)" class="st1">
					<rect x="0" y="586.8" width="54" height="25.2" class="st2"/>
				</g>
				<rect x="0" y="586.8" width="54" height="25.2" class="st3"/>
			</g>
			<g id="shape85-250" v:mID="85" v:groupContext="shape" transform="translate(36,-28.8)">
				<title>Sheet.85</title>
				<g id="shadow85-251" v:groupContext="shadow" v:shadowOffsetX="0.345598" v:shadowOffsetY="-1.97279" v:shadowType="1"
						transform="matrix(1,0,0,1,0.345598,1.97279)" class="st1">
					<path d="M9 612 a0 0 0 1 1 0 0 a0 0 0 1 1 0 0 Z" class="st2"/>
				</g>
				<path d="M9 612 a0 0 0 1 1 0 0 a0 0 0 1 1 0 0 Z" class="st3"/>
			</g>
			<g id="shape86-255" v:mID="86" v:groupContext="shape" transform="translate(30,302.4)">
				<title>Sheet.86</title>
				<g id="shadow86-256" v:groupContext="shadow" v:shadowOffsetX="0.345598" v:shadowOffsetY="-1.97279" v:shadowType="1"
						transform="matrix(1,0,0,1,0.345598,1.97279)" class="st1"/>
			</g>
			<g id="shape87-260" v:mID="87" v:groupContext="shape" transform="translate(657,612) rotate(90)">
				<title>Sheet.87</title>
				<path d="M0 612 L284.4 612" class="st4"/>
			</g>
			<g id="shape83-263" v:mID="83" v:groupContext="groupContent">
				<v:textBlock v:margins="rect(4,4,4,4)"/>
				<v:textRect cx="45" cy="599.4" width="90" height="25.2"/>
				<g id="shadow83-264" v:groupContext="shadow" v:shadowOffsetX="0.345598" v:shadowOffsetY="-1.97279" v:shadowType="1"
						transform="matrix(1,0,0,1,0.345598,1.97279)" class="st1">
					<rect x="0" y="586.8" width="90" height="25.2" class="st2"/>
				</g>
				<rect x="0" y="586.8" width="90" height="25.2" class="st3"/>
				<text x="10.49" y="603" class="st5" v:langID="1033"><v:paragraph v:horizAlign="1"/><v:tabList/>Token Service</text>			</g>
		</g>
		<g id="shape88-269" v:mID="88" v:groupContext="shape" v:layerMember="0" transform="translate(270,-365.4)">
			<title>Message.88</title>
			<desc>Hash and Store JWT</desc>
			<v:userDefs>
				<v:ud v:nameU="IsReturn" v:prompt="" v:val="VT0(0):5"/>
				<v:ud v:nameU="IsAsync" v:prompt="" v:val="VT0(0):26"/>
				<v:ud v:nameU="IsSelfMessage" v:prompt="" v:val="VT0(0):5"/>
				<v:ud v:nameU="visVersion" v:prompt="" v:val="VT0(15):26"/>
			</v:userDefs>
			<v:textBlock v:margins="rect(4,4,4,4)"/>
			<v:textRect cx="175.5" cy="603" width="74.54" height="17.6036"/>
			<path d="M0 603 L342.52 603" class="st6"/>
			<rect v:rectContext="textBkgnd" x="143.139" y="598.2" width="64.7224" height="9.59985" class="st8"/>
			<text x="143.14" y="605.4" class="st9" v:langID="1033"><v:paragraph v:horizAlign="1"/><v:tabList/>Hash and Store JWT</text>		</g>
		<g id="shape89-276" v:mID="89" v:groupContext="shape" v:layerMember="0" transform="translate(621,-347.4)">
			<title>Message.89</title>
			<v:userDefs>
				<v:ud v:nameU="IsReturn" v:prompt="" v:val="VT0(0):5"/>
				<v:ud v:nameU="IsAsync" v:prompt="" v:val="VT0(0):26"/>
				<v:ud v:nameU="IsSelfMessage" v:prompt="" v:val="VT0(0):5"/>
				<v:ud v:nameU="visVersion" v:prompt="" v:val="VT0(15):26"/>
				<v:ud v:nameU="IsReturn" v:prompt="" v:val="VT0(1):5"/>
				<v:ud v:nameU="IsAsync" v:prompt="" v:val="VT0(0):5"/>
			</v:userDefs>
			<path d="M0 603 L-351 603" class="st11"/>
		</g>
	</g>
</svg>
